<svg xmlns="http://www.w3.org/2000/svg" xmlns:xlink="http://www.w3.org/1999/xlink" width="80" zoomAndPan="magnify" viewBox="0 0 60 37.5" height="50" preserveAspectRatio="xMidYMid meet" version="1.0"><defs><g/><clipPath id="4cde42d3b6"><path d="M 19.523438 8.75 L 40.476562 8.75 L 40.476562 29.699219 L 19.523438 29.699219 Z M 19.523438 8.75 " clip-rule="nonzero"/></clipPath><clipPath id="8b9bdf196b"><path d="M 21.160156 8.75 L 38.839844 8.75 C 39.742188 8.75 40.476562 9.480469 40.476562 10.382812 L 40.476562 28.066406 C 40.476562 28.96875 39.742188 29.699219 38.839844 29.699219 L 21.160156 29.699219 C 20.257812 29.699219 19.523438 28.96875 19.523438 28.066406 L 19.523438 10.382812 C 19.523438 9.480469 20.257812 8.75 21.160156 8.75 Z M 21.160156 8.75 " clip-rule="nonzero"/></clipPath><clipPath id="65737e039b"><path d="M 4.09375 13.546875 L 17.417969 13.546875 L 17.417969 27.609375 L 4.09375 27.609375 Z M 4.09375 13.546875 " clip-rule="nonzero"/></clipPath><clipPath id="7a50f7a83e"><path d="M 42.824219 13.546875 L 55.894531 13.546875 L 55.894531 27.609375 L 42.824219 27.609375 Z M 42.824219 13.546875 " clip-rule="nonzero"/></clipPath></defs><g clip-path="url(#4cde42d3b6)"><g clip-path="url(#8b9bdf196b)"><path fill="#1e1e1e" d="M 19.523438 8.75 L 40.476562 8.75 L 40.476562 29.699219 L 19.523438 29.699219 Z M 19.523438 8.75 " fill-opacity="1" fill-rule="nonzero"/></g></g><g clip-path="url(#65737e039b)"><path fill="#1e1e1e" d="M 15.191406 27.789062 C 12.5 26.125 8.746094 23.8125 4.585938 22.242188 C 4.40625 21.367188 4.222656 20.203125 4.09375 19.332031 C 8.070312 17.597656 12.683594 15.355469 17.164062 13.644531 C 17.152344 15 17.09375 16.328125 16.976562 17.671875 C 14.265625 18.652344 11.675781 19.753906 9.234375 20.714844 C 11.734375 21.613281 14.105469 22.628906 16.207031 23.605469 C 15.949219 24.921875 15.550781 26.488281 15.191406 27.789062 Z M 15.191406 27.789062 " fill-opacity="1" fill-rule="nonzero"/></g><g clip-path="url(#7a50f7a83e)"><path fill="#1e1e1e" d="M 44.796875 27.789062 C 47.488281 26.125 51.242188 23.8125 55.402344 22.242188 C 55.582031 21.367188 55.765625 20.203125 55.894531 19.332031 C 51.917969 17.597656 47.304688 15.355469 42.824219 13.644531 C 42.839844 15 42.898438 16.328125 43.011719 17.671875 C 45.726562 18.652344 48.3125 19.753906 50.753906 20.714844 C 48.253906 21.613281 45.882812 22.628906 43.785156 23.605469 C 44.039062 24.921875 44.4375 26.488281 44.796875 27.789062 Z M 44.796875 27.789062 " fill-opacity="1" fill-rule="nonzero"/></g><g fill="#ffffff" fill-opacity="1"><g transform="translate(21.69313, 24.820953)"><g><path d="M 0.609375 -9.3125 C 0.609375 -10.25 0.929688 -10.976562 1.578125 -11.5 C 2.234375 -12.019531 3.222656 -12.28125 4.546875 -12.28125 C 5.410156 -12.28125 6.144531 -12.195312 6.75 -12.03125 L 6.75 -9.609375 C 6.09375 -9.804688 5.445312 -9.90625 4.8125 -9.90625 C 4.175781 -9.90625 3.765625 -9.832031 3.578125 -9.6875 C 3.390625 -9.539062 3.296875 -9.328125 3.296875 -9.046875 L 3.296875 -3.125 C 3.296875 -2.5625 3.738281 -2.28125 4.625 -2.28125 C 5.507812 -2.28125 6.238281 -2.367188 6.8125 -2.546875 L 6.8125 -0.171875 C 6.175781 0.00390625 5.40625 0.09375 4.5 0.09375 C 3.1875 0.09375 2.207031 -0.160156 1.5625 -0.671875 C 0.925781 -1.191406 0.609375 -1.925781 0.609375 -2.875 Z M 0.609375 -9.3125 "/></g></g></g><g fill="#ffffff" fill-opacity="1"><g transform="translate(28.943427, 24.820953)"><g><path d="M 5.890625 -12.1875 L 8.5625 -12.1875 L 8.5625 0 L 5.890625 0 L 5.890625 -4.828125 L 3.46875 -4.828125 L 3.46875 0 L 0.796875 0 L 0.796875 -12.1875 L 3.46875 -12.1875 L 3.46875 -7.171875 L 5.890625 -7.171875 Z M 5.890625 -12.1875 "/></g></g></g></svg>