<svg xmlns="http://www.w3.org/2000/svg" xmlns:xlink="http://www.w3.org/1999/xlink" width="500" zoomAndPan="magnify" viewBox="0 0 375 374.999991" height="500" preserveAspectRatio="xMidYMid meet" version="1.0"><defs><g/><clipPath id="da2f6d4d6a"><path d="M 127.09375 122.816406 L 247.722656 122.816406 L 247.722656 243.445312 L 127.09375 243.445312 Z M 127.09375 122.816406 " clip-rule="nonzero"/></clipPath><clipPath id="c1aeea6c2b"><path d="M 144.34375 122.816406 L 230.472656 122.816406 C 235.046875 122.816406 239.433594 124.632812 242.667969 127.871094 C 245.902344 131.105469 247.722656 135.492188 247.722656 140.066406 L 247.722656 226.195312 C 247.722656 230.769531 245.902344 235.15625 242.667969 238.394531 C 239.433594 241.628906 235.046875 243.445312 230.472656 243.445312 L 144.34375 243.445312 C 139.769531 243.445312 135.378906 241.628906 132.144531 238.394531 C 128.910156 235.15625 127.09375 230.769531 127.09375 226.195312 L 127.09375 140.066406 C 127.09375 135.492188 128.910156 131.105469 132.144531 127.871094 C 135.378906 124.632812 139.769531 122.816406 144.34375 122.816406 Z M 144.34375 122.816406 " clip-rule="nonzero"/></clipPath><clipPath id="9a6cbf9c77"><path d="M 37.5 142 L 112.5 142 L 112.5 224 L 37.5 224 Z M 37.5 142 " clip-rule="nonzero"/></clipPath><clipPath id="f58ac5cc6c"><path d="M 262.488281 142 L 337.195312 142 L 337.195312 224 L 262.488281 224 Z M 262.488281 142 " clip-rule="nonzero"/></clipPath></defs><g clip-path="url(#da2f6d4d6a)"><g clip-path="url(#c1aeea6c2b)"><path fill="#000000" d="M 127.09375 122.816406 L 247.722656 122.816406 L 247.722656 243.445312 L 127.09375 243.445312 Z M 127.09375 122.816406 " fill-opacity="1" fill-rule="nonzero"/></g></g><g clip-path="url(#9a6cbf9c77)"><path fill="#000000" d="M 101.191406 223.71875 C 85.730469 214.148438 64.195312 200.828125 40.320312 191.8125 C 39.285156 186.761719 38.222656 180.066406 37.5 175.0625 C 60.3125 165.078125 86.792969 152.195312 112.5 142.332031 C 112.425781 150.140625 112.089844 157.777344 111.4375 165.511719 C 95.859375 171.144531 81.003906 177.476562 66.992188 183.015625 C 81.34375 188.1875 94.945312 194.035156 107 199.644531 C 105.53125 207.210938 103.238281 216.226562 101.191406 223.71875 Z M 101.191406 223.71875 " fill-opacity="1" fill-rule="nonzero"/></g><g clip-path="url(#f58ac5cc6c)"><path fill="#000000" d="M 273.800781 223.71875 C 289.257812 214.148438 310.792969 200.828125 334.667969 191.8125 C 335.703125 186.761719 336.765625 180.066406 337.488281 175.0625 C 314.675781 165.078125 288.195312 152.195312 262.488281 142.332031 C 262.5625 150.140625 262.898438 157.777344 263.550781 165.511719 C 279.128906 171.144531 293.984375 177.476562 307.996094 183.015625 C 293.648438 188.1875 280.046875 194.035156 267.988281 199.644531 C 269.457031 207.210938 271.75 216.226562 273.800781 223.71875 Z M 273.800781 223.71875 " fill-opacity="1" fill-rule="nonzero"/></g><g fill="#ffffff" fill-opacity="1"><g transform="translate(139.672553, 219.720605)"><g><path d="M 3.546875 -53.609375 C 3.546875 -59.015625 5.421875 -63.21875 9.171875 -66.21875 C 12.921875 -69.226562 18.578125 -70.734375 26.140625 -70.734375 C 31.140625 -70.734375 35.398438 -70.257812 38.921875 -69.3125 L 38.921875 -55.328125 C 35.128906 -56.484375 31.390625 -57.0625 27.703125 -57.0625 C 24.023438 -57.0625 21.644531 -56.632812 20.5625 -55.78125 C 19.488281 -54.9375 18.953125 -53.707031 18.953125 -52.09375 L 18.953125 -18.046875 C 18.953125 -14.796875 21.5 -13.171875 26.59375 -13.171875 C 31.695312 -13.171875 35.90625 -13.675781 39.21875 -14.6875 L 39.21875 -1.015625 C 35.570312 -0.00390625 31.144531 0.5 25.9375 0.5 C 18.375 0.5 12.75 -0.984375 9.0625 -3.953125 C 5.382812 -6.921875 3.546875 -11.109375 3.546875 -16.515625 Z M 3.546875 -53.609375 "/></g></g></g><g fill="#ffffff" fill-opacity="1"><g transform="translate(181.416688, 219.720605)"><g><path d="M 33.953125 -70.234375 L 49.359375 -70.234375 L 49.359375 0 L 33.953125 0 L 33.953125 -27.765625 L 19.96875 -27.765625 L 19.96875 0 L 4.5625 0 L 4.5625 -70.234375 L 19.96875 -70.234375 L 19.96875 -41.34375 L 33.953125 -41.34375 Z M 33.953125 -70.234375 "/></g></g></g></svg>